<mxfile host="app.diagrams.net" modified="2024-08-06T22:54:55.980Z" agent="Mozilla/5.0 (Windows NT 10.0; Win64; x64; rv:126.0) Gecko/20100101 Firefox/126.0" version="24.5.4" etag="iVXIi0mEqB6237ujjCPA" type="github">
  <diagram name="PÃ¡gina-1" id="bF4F2_mFtcMo5zvAvmvA">
    <mxGraphModel>
      <root>
        <mxCell id="0" />
        <mxCell id="1" parent="0" />
      </root>
    </mxGraphModel>
  </diagram>
</mxfile>
